<svg width="16" height="15" viewBox="0 0 16 15" fill="none" xmlns="http://www.w3.org/2000/svg">
<path d="M0.5 1.2626C0.5 0.940178 0.800666 0.702046 1.11452 0.775894L7.61452 2.30531C7.84038 2.35845 8 2.55999 8 2.79201V13.1108C8 13.3643 7.81023 13.5777 7.55842 13.6073L1.05842 14.372C0.761173 14.407 0.5 14.1748 0.5 13.8755V1.2626Z" stroke="#3224E3"/>
<path d="M8 2.79201C8 2.55999 8.15962 2.35845 8.38548 2.30531L14.8855 0.775894C15.1993 0.702046 15.5 0.940178 15.5 1.2626V13.8755C15.5 14.1748 15.2388 14.407 14.9416 14.372L8.44158 13.6073C8.18977 13.5777 8 13.3643 8 13.1108V2.79201Z" stroke="#3224E3"/>
<path d="M2 4L4 4.5L6 5" stroke="#3224E3"/>
<path d="M10 6L12 5.5L14 5" stroke="#3224E3"/>
<path d="M10 9L12 8.5L14 8" stroke="#3224E3"/>
<path d="M10 11.5491L12 11.2746L14 11" stroke="#3224E3"/>
<path d="M2 7L4 7.5L6 8" stroke="#3224E3"/>
<path d="M2 10L4 10.5L6 11" stroke="#3224E3"/>
</svg>
